<?xml version="1.0" encoding="UTF-8" standalone="no"?>
<!-- Created with Inkscape (http://www.inkscape.org/) -->

<svg
   xmlns:dc="http://purl.org/dc/elements/1.1/"
   xmlns:cc="http://creativecommons.org/ns#"
   xmlns:rdf="http://www.w3.org/1999/02/22-rdf-syntax-ns#"
   xmlns:svg="http://www.w3.org/2000/svg"
   xmlns="http://www.w3.org/2000/svg"
   xmlns:sodipodi="http://sodipodi.sourceforge.net/DTD/sodipodi-0.dtd"
   xmlns:inkscape="http://www.inkscape.org/namespaces/inkscape"
   width="800"
   height="800"
   id="svg10752"
   version="1.1"
   inkscape:version="0.48.4 r9939"
   sodipodi:docname="Новый документ 29">
  <defs
     id="defs10754">
    <filter
       color-interpolation-filters="sRGB"
       inkscape:collect="always"
       id="filter14315"
       x="-0.13291782"
       width="1.2658356"
       y="-0.14091578"
       height="1.2818316">
      <feGaussianBlur
         inkscape:collect="always"
         stdDeviation="3.1596028"
         id="feGaussianBlur14317" />
    </filter>
    <filter
       color-interpolation-filters="sRGB"
       inkscape:collect="always"
       id="filter14275">
      <feGaussianBlur
         inkscape:collect="always"
         stdDeviation="13.723221"
         id="feGaussianBlur14277" />
    </filter>
    <filter
       color-interpolation-filters="sRGB"
       inkscape:collect="always"
       id="filter14303">
      <feGaussianBlur
         inkscape:collect="always"
         stdDeviation="15.933328"
         id="feGaussianBlur14305" />
    </filter>
    <filter
       color-interpolation-filters="sRGB"
       inkscape:collect="always"
       id="filter14331"
       x="-0.11152894"
       width="1.2230579"
       y="-0.13824151"
       height="1.2764831">
      <feGaussianBlur
         inkscape:collect="always"
         stdDeviation="39.833321"
         id="feGaussianBlur14333" />
    </filter>
  </defs>
  <sodipodi:namedview
     id="base"
     pagecolor="#ffffff"
     bordercolor="#666666"
     borderopacity="1.0"
     inkscape:pageopacity="0.0"
     inkscape:pageshadow="2"
     inkscape:zoom="0.49497475"
     inkscape:cx="-201.44491"
     inkscape:cy="612.41876"
     inkscape:document-units="px"
     inkscape:current-layer="layer1"
     showgrid="false"
     fit-margin-top="0"
     fit-margin-left="0"
     fit-margin-right="0"
     fit-margin-bottom="0"
     inkscape:window-width="1920"
     inkscape:window-height="1018"
     inkscape:window-x="-8"
     inkscape:window-y="-8"
     inkscape:window-maximized="1" />
  <metadata
     id="metadata10757">
    <rdf:RDF>
      <cc:Work
         rdf:about="">
        <dc:format>image/svg+xml</dc:format>
        <dc:type
           rdf:resource="http://purl.org/dc/dcmitype/StillImage" />
        <dc:title></dc:title>
      </cc:Work>
    </rdf:RDF>
  </metadata>
  <g
     inkscape:label="Layer 1"
     inkscape:groupmode="layer"
     id="layer1"
     transform="translate(-638.25,-353.28125)">
    <g
       id="g11156">
      <rect
         ry="0.5374707"
         rx="0.4960109"
         y="353.62347"
         x="638.6192"
         height="799.28998"
         width="799.28998"
         id="rect11131"
         style="fill:#000000;fill-opacity:1;stroke:#ff0000;stroke-width:0.71002924;stroke-linecap:round;stroke-linejoin:miter;stroke-miterlimit:4;stroke-opacity:1;stroke-dasharray:none;stroke-dashoffset:0.8" />
      <path
         transform="matrix(0.48551687,-0.38010711,0.38010711,0.48551687,6608.4872,4133.5902)"
         d="m -3230,-9881.6377 c 0,74.0062 -239.0799,134 -534,134 -294.9201,0 -534,-59.9938 -534,-134 0,-74.0062 239.0799,-134.0003 534,-134.0003 294.9201,0 534,59.9941 534,134.0003 z"
         sodipodi:ry="134"
         sodipodi:rx="534"
         sodipodi:cy="-9881.6377"
         sodipodi:cx="-3764"
         id="path14231"
         style="opacity:0.84518828;fill:#344f6e;fill-opacity:1;stroke:none;filter:url(#filter14331)"
         sodipodi:type="arc" />
      <path
         transform="matrix(0.27639912,-0.21639057,0.21639057,0.27639912,4203.5805,2683.3934)"
         sodipodi:type="arc"
         style="opacity:0.8284519;fill:#9c6973;fill-opacity:1;stroke:none;filter:url(#filter14303)"
         id="path14233"
         sodipodi:cx="-3764"
         sodipodi:cy="-9881.6377"
         sodipodi:rx="534"
         sodipodi:ry="134"
         d="m -3230,-9881.6377 c 0,74.0062 -239.0799,134 -534,134 -294.9201,0 -534,-59.9938 -534,-134 0,-74.0062 239.0799,-134.0003 534,-134.0003 294.9201,0 534,59.9941 534,134.0003 z" />
      <path
         d="m -3230,-9881.6377 c 0,74.0062 -239.0799,134 -534,134 -294.9201,0 -534,-59.9938 -534,-134 0,-74.0062 239.0799,-134.0003 534,-134.0003 294.9201,0 534,59.9941 534,134.0003 z"
         sodipodi:ry="134"
         sodipodi:rx="534"
         sodipodi:cy="-9881.6377"
         sodipodi:cx="-3764"
         id="path14235"
         style="opacity:0.89121339;fill:#ecd5cb;fill-opacity:1;stroke:none;filter:url(#filter14275)"
         sodipodi:type="arc"
         transform="matrix(0.11274174,-0.08826457,0.08826457,0.11274174,2321.4795,1548.4569)" />
      <path
         transform="matrix(0.61661012,0,0,0.61661012,779.48727,469.05921)"
         inkscape:connector-curvature="0"
         id="path14237"
         d="m 402.06249,455.65577 c -6.7809,-0.02 -13.9159,2.337 -20.0313,7.125 -13.046,10.214 -16.442,27.635 -7.5937,38.937 2.9169,3.726 6.7922,6.314 11.1563,7.75 5.9607,-2.658 11.9893,-6.012 17.875,-10.062 9.293,-6.395 17.1073,-13.707 23.0937,-21.25 -0.231,-4.838 -1.8071,-9.488 -4.875,-13.406 -4.7006,-6.004 -11.94,-9.073 -19.625,-9.094 z"
         style="opacity:0.89121339;fill:#ffffff;fill-opacity:1;stroke:none;filter:url(#filter14315)" />
    </g>
  </g>
</svg>
