<svg xmlns="http://www.w3.org/2000/svg" viewBox="0 0 892.29 2102.03"><defs><style>.cls-1{fill:#dfe8e8;}.cls-2{fill:#71787c;}.cls-3{fill:#e0644d;}.cls-4{fill:#fccec8;}.cls-5{fill:#363348;}.cls-6{fill:#bfcad2;}.cls-7{fill:#b0bbc1;}.cls-8{fill:#d8e3ea;}.cls-9{fill:#fff;}</style></defs><g id="Layer_2" data-name="Layer 2"><g id="robot_illustration_collection" data-name="robot illustration collection"><path class="cls-1" d="M460.17,1968C40,1968,30.33,2044,30.33,2044s4,58,429,58,429-58,429-58S880.34,1968,460.17,1968Z"/><path class="cls-2" d="M499.06,140.33c0-4.67-35.33-19.33-38.67-19.33s0-71.34,0-71.34H451.6c-2.13,0-2.54,70.67,0,75.34s38.13,10,38.13,16-92.67,16-93.34,20.66,46,24.67,51.34,24.67,0,44.67,0,44.67h9.33s1.33-38.67,1.33-43.34-44-20-44-22S499.06,145,499.06,140.33Z"/><path class="cls-3" d="M453.9.07s-36.78-3.35-36.78,36.82c0,36.82,36.78,32.8,36.78,32.8S486.07,68,486.07,36C486.07,1.84,453.9.07,453.9.07Z"/><path class="cls-4" d="M465.35,7.28S447,5.61,447,25.69c0,18.41,18.39,16.4,18.39,16.4s16.09-.86,16.09-16.83C481.44,8.17,465.35,7.28,465.35,7.28Z"/><rect class="cls-5" x="434.86" y="222" width="33.47" height="66"/><rect class="cls-5" x="410.03" y="815.06" width="83.14" height="66"/><path class="cls-6" d="M463.21,274.53c-255.95,0-203,516.88-203,516.88s-4.57,43.74,204,43.74,204.53-43.74,204.53-43.74S719.17,274.53,463.21,274.53Z"/><path class="cls-7" d="M463.21,274.53c-3.94,0-7.82.12-11.61.37.12,0,178.23,61.29,178.23,295s-35.14,256.8-35.14,256.8h0c76.15-12.72,74-35.29,74-35.29S719.17,274.53,463.21,274.53Z"/><path class="cls-5" d="M335.45,520.15s-32.15-2.92-32.15,32.19c0,32.19,32.15,28.68,32.15,28.68s28.13-1.5,28.13-29.43C363.58,521.7,335.45,520.15,335.45,520.15Z"/><path class="cls-5" d="M491.49,520.15s-32.15-2.92-32.15,32.19c0,32.19,32.15,28.68,32.15,28.68s28.13-1.5,28.13-29.43C519.62,521.7,491.49,520.15,491.49,520.15Z"/><path class="cls-8" d="M397.44,308.16s-41.24,16.49-69.28,66-12.37,117.93,10.72,121.23S343,437.64,362.8,393.93,424.65,311.46,397.44,308.16Z"/><path class="cls-6" d="M1,1311.13C-9,1403,59,1585,73,1585s138-19.59,138-29.8V947S11,1219.26,1,1311.13Z"/><path class="cls-2" d="M211,1108.11v-48.4c-32.4,53.14-141.3,233-143,253.85-1.56,19.06,12.09,96.26,18.17,129.3a634,634,0,0,0-61.6,28.19c2.58,8.85,5.26,17.48,8,25.79,74.83-41.46,146.43-58.95,178.46-65.21v-26.92a842.55,842.55,0,0,0-103.08,29.9C102.54,1406.06,88.76,1330.32,92,1319,95.06,1308.29,174.81,1172.93,211,1108.11Z"/><path class="cls-2" d="M106.34,1183.94s-13.48-1.22-13.48,13.5c0,13.5,13.48,12,13.48,12s11.8-.63,11.8-12.34C118.14,1184.59,106.34,1183.94,106.34,1183.94Z"/><path class="cls-2" d="M73.34,1230s-13.48-1.23-13.48,13.5c0,13.5,13.48,12,13.48,12s11.8-.63,11.8-12.34C85.14,1230.67,73.34,1230,73.34,1230Z"/><path class="cls-6" d="M190.6,1555.2s14,273,66,463.42c0,0,48.33,25.62,105.16,0,0,0,25-133.62,52.91-377.62Z"/><path class="cls-2" d="M302.63,1917.51c-30.8,0-53.73-3.28-70.54-7.55q2.64,14.08,5.49,28c16.34,3.76,37.67,6.52,65,6.52,29.3,0,53.64-4,73-9.36q1.86-11.94,3.9-25.54C359.8,1914,334.29,1917.51,302.63,1917.51Z"/><path class="cls-2" d="M246.69,1979.51q2.25,9.6,4.63,19c11.84,3.85,29.6,7.48,54.48,7.48a200.59,200.59,0,0,0,59.73-8.75q1.26-7.37,2.9-17.19c-14.19,3.48-35.19,6.94-62.63,6.94C276.91,1987,258.09,1983.16,246.69,1979.51Z"/><path class="cls-6" d="M672.76,881.06S659.47,859,451.6,859s-240.95,22.06-240.95,22.06-296.92,836.86,224.21,836.86C981.73,1717.92,672.76,881.06,672.76,881.06Z"/><path class="cls-7" d="M464.2,1146.76S566.63,1323,562.18,1463c-3.25,102.12-101,206.15-153.61,255q12.78.74,26.29.75c468.8,0,308.68-615,253.41-790.57C660.73,984.11,594.17,1089.6,464.2,1146.76Z"/><path class="cls-2" d="M704.15,980.9c-16.32-58.4-30.17-96.51-31.31-99.63C641.31,942.39,543.52,1108.69,410,1116.2c-163.7,9.21-178.3-179.2-178.3-179.2s-42,258,178.3,254C575.48,1188,668.23,1049.62,704.15,980.9Z"/><path class="cls-2" d="M161,1461c-35.95-191.71,10.73-445.51,10.87-446.28-59,236.07-126.69,704,263,704,98.53,0,169.27-27.17,219-71.71h0C450.83,1753,197,1653,161,1461Z"/><path class="cls-2" d="M354,1313.75S247.2,1304,247.2,1420.7C247.2,1527.64,354,1516,354,1516s93.46-5,93.46-97.77C447.48,1318.89,354,1313.75,354,1313.75Zm-.5,194.66s-98.82,10.79-98.82-88.14c0-107.94,98.82-98.94,98.82-98.94S440,1326.09,440,1418C440,1503.8,353.52,1508.41,353.52,1508.41Z"/><path class="cls-2" d="M352.21,1341.14s-77.91-7.09-77.91,78c0,78,77.91,69.5,77.91,69.5s68.17-3.64,68.17-71.32C420.38,1344.89,352.21,1341.14,352.21,1341.14Zm-.36,142s-72.08,7.87-72.08-64.29c0-78.72,72.08-72.16,72.08-72.16s63,3.47,63,70.48C414.9,1479.75,351.85,1483.12,351.85,1483.12Z"/><path class="cls-9" d="M349.35,1384.49s-32.16-2.93-32.16,32.19c0,32.19,32.16,28.68,32.16,28.68s28.13-1.5,28.13-29.43C377.48,1386,349.35,1384.49,349.35,1384.49Z"/><path class="cls-2" d="M129.74,1413c55.3,22.68,122.76,21,122.76,21v-11.5c-59.22-.73-104-14.29-123.81-21.53Q129.17,1407,129.74,1413Z"/><path class="cls-2" d="M443.07,1425v9c189.32,19,274.59,3.06,311.87-11.51q1-8.12,1.74-16.32C647.4,1449.34,443.07,1425,443.07,1425Z"/><path class="cls-2" d="M347.34,1141s-17.67,74-14.34,178l14.34-2.67s-10.34-56.67,9-175.33Z"/><path class="cls-6" d="M891.8,1272.19C883.87,1237,707.45,993.52,707.45,993.52c-155.8,30.32,36.86,372.19,36.86,372.19-33.31,85.31-50.76,178-50.76,187.47s96.75,31.72,106.08,30.14S899.73,1307.36,891.8,1272.19Z"/><path class="cls-2" d="M794.55,1451.94c9.13-35.92,39.6-156.22,40.45-163.48.87-7.42-126-224.85-159.15-281.53a62.87,62.87,0,0,0-14,14.67C682,1059.73,736.2,1155.22,773.65,1221c-37.36,13.3-59.47,39.86-71.42,59.7,3,6.68,5.91,13.1,8.77,19.22,28.87-40.62,55.65-59.26,69.49-66.91,18.32,32.16,31.23,54.77,31.51,55.46.84,2.08-26.66,123.64-35.39,162-28.55-1.08-49.52,2.9-62.17,6.47q-2.78,10.11-5.18,19.58a196.44,196.44,0,0,1,72.41-2.56c25.3,3.79,43.34,10.43,54.56,15.72,1.88-5.62,3.78-11.37,5.69-17.21C832.91,1464.22,818.07,1455.26,794.55,1451.94Z"/><path class="cls-2" d="M770.3,1112.94s-13.48-1.22-13.48,13.5c0,13.5,13.48,12,13.48,12s11.8-.63,11.8-12.34C782.1,1113.59,770.3,1112.94,770.3,1112.94Z"/><path class="cls-2" d="M807.38,1167.46c0-12.53-11.8-13.18-11.8-13.18s-13.48-1.23-13.48,13.5c0,13.49,13.48,12,13.48,12S807.38,1179.17,807.38,1167.46Z"/><path class="cls-2" d="M817,1191.07s-13.49-1.23-13.49,13.5c0,13.49,13.49,12,13.49,12s11.79-.63,11.79-12.34C828.76,1191.72,817,1191.07,817,1191.07Z"/><path class="cls-2" d="M594,1585c-92,85-61.63,123.23-61.63,123.23l169.82-120.18C710.38,1559.11,686,1500,594,1585Z"/><path class="cls-6" d="M693.55,1553.18s-79,1.34-157,116.83c0,0-20.28,181.49,63.35,336,0,0,43.93,22.49,104.28,0C704.15,2006,762.1,1809.83,693.55,1553.18Z"/><path class="cls-7" d="M630.28,1576c11.67,26.9,34.65,88,42.72,168,9.12,90.37-20.26,224.06-46.52,270,18.65,3.25,45.88,3.89,77.67-8,0,0,58-196.17-10.6-452.82C693.55,1553.18,667.37,1553.63,630.28,1576Z"/><path class="cls-2" d="M556.86,1896.58q3.74,13.82,8.27,27.8c17.52,5.91,44.12,11.62,81.49,11.62,33.26,0,56.82-4.87,72.9-10.43,1.06-8.15,2.08-16.86,3-26.08-16.28,5.22-40.86,10.11-75.9,10.11C605.11,1909.6,575.29,1902.74,556.86,1896.58Z"/></g></g></svg>