<svg xmlns="http://www.w3.org/2000/svg" viewBox="0 0 982.66 1726.47"><defs><style>.cls-1{fill:#dfe8e8;}.cls-2{fill:#363348;}.cls-3{fill:#4c4a66;}.cls-4{fill:#bfcad2;}.cls-5{fill:#b0bbc1;}.cls-6{fill:#d8e3ea;}.cls-7{fill:#71787c;}.cls-8{fill:#93d2b7;}.cls-9{fill:#acefd1;}</style></defs><g id="Layer_2" data-name="Layer 2"><g id="robot_illustration_collection" data-name="robot illustration collection"><path class="cls-1" d="M473.12,1592.47c-420.16,0-429.84,76-429.84,76s4,58,429,58,429-58,429-58S893.28,1592.47,473.12,1592.47Z"/><path class="cls-2" d="M90.1,302.64c0,118.5,131,103.5,131,103.5v-207S90.1,184.14,90.1,302.64Z"/><path class="cls-3" d="M150.1,302.64c0-44.55,13.58-80.5,23.57-100.94a140.84,140.84,0,0,0-18.27,4.82c-8.93,21.41-18.63,54.49-18.63,97.28,0,42.53,8.72,74.14,16.81,94.31a137.46,137.46,0,0,0,16.33,4.68C161.21,381.33,150.1,345.53,150.1,302.64Z"/><path class="cls-2" d="M907.1,302.64c0,118.5-131,103.5-131,103.5v-207S907.1,184.14,907.1,302.64Z"/><path class="cls-3" d="M847.1,302.64c0-44.55-13.57-80.5-23.56-100.94a141.27,141.27,0,0,1,18.27,4.82c8.93,21.41,18.63,54.49,18.63,97.28,0,42.53-8.72,74.14-16.81,94.31a137.46,137.46,0,0,1-16.33,4.68C836,381.33,847.1,345.53,847.1,302.64Z"/><path class="cls-4" d="M249.58,570.8S-5.9,890.49.1,963.24,188.1,1200,188.1,1200l94-620.67Z"/><path class="cls-5" d="M249.58,570.8s-29.56,37-68.33,88.65c2.23,52.28,1,127.29-13.19,216.55-18.94,119.21-62.66,184.27-88.91,213.86,51.43,58.31,109,110.14,109,110.14l94-620.67Z"/><path class="cls-4" d="M733.08,570.8S988.55,890.49,982.55,963.24s-188,236.76-188,236.76l-94-620.67Z"/><path class="cls-5" d="M733.08,570.8s29.56,37,68.32,88.65c-2.22,52.28-1,127.29,13.2,216.55,18.93,119.21,62.66,184.27,88.9,213.86-51.43,58.31-109,110.14-109,110.14l-94-620.67Z"/><path class="cls-6" d="M124.11,771.33s-29.34,30.67-54,69.34-32,78-23.34,84.66,17.17-42,36.92-74S142.77,768.67,124.11,771.33Z"/><path class="cls-4" d="M149.2,1211.18S187.09,1548,233.6,1680c0,0,62.79,28,133.64,0,0,0,40.86-155.85,58.86-411.92Z"/><path class="cls-5" d="M407.61,1453.81c7-53.73,13.59-116,18.49-185.73L245.6,1231Z"/><path class="cls-7" d="M419.07,1352.45,261,1273.23l-26-11.83-7.85,11.83L274.29,1299l42.18,392.8a178.75,178.75,0,0,0,26.12-4.11l-49.26-378.28,123.3,67.38Q417.88,1364.83,419.07,1352.45Z"/><path class="cls-4" d="M839,1211.18S801.11,1548,754.6,1680c0,0-62.78,28-133.64,0,0,0-40.86-155.85-58.86-411.92Z"/><path class="cls-5" d="M580.6,1453.81c-7-53.73-13.6-116-18.5-185.73L742.6,1231Z"/><path class="cls-7" d="M569.13,1352.45l158.12-79.22,26-11.83,7.85,11.83L713.91,1299l-42.18,392.8a178.75,178.75,0,0,1-26.12-4.11l49.26-378.28-123.3,67.38Q570.33,1364.83,569.13,1352.45Z"/><path class="cls-4" d="M711,581.18H275.2s-110,368-126,630c0,0,149.81,114,343.9,110,194.1,4,343.91-110,343.91-110C821,949.18,711,581.18,711,581.18Z"/><path class="cls-5" d="M270.09,598.73s16.13,70.94,220.51,70.94,226.19-70.94,226.19-70.94Z"/><polygon class="cls-7" points="694.6 719.5 675.1 719.5 675.1 701 663.1 701 663.1 758 643.6 758 643.6 769.5 663.1 769.5 663.1 852 675.1 852 675.1 731 694.6 731 694.6 719.5"/><path class="cls-5" d="M249.58,1268.08c61.65,27.86,147.27,55.09,243.86,53.1,96.33,2,181.75-25.1,243.37-52.89,0,0-81.71,14.71-257.71,14.71S249.58,1268.08,249.58,1268.08Z"/><path class="cls-7" d="M172.78,1018.7q-2.44,14.38-4.72,28.78c32.93.94,97.85,8.77,102,55.66,3.94,44.3-20.37,118.26-35.14,158.26,8.18,3.94,16.85,7.91,26,11.83,17.12-34.47,43.44-100.55,37.27-171.59C291.55,1025,213.09,1017.46,172.78,1018.7Z"/><path class="cls-7" d="M716.09,1103.14c4.17-46.89,69.09-54.72,102-55.66q-2.28-14.38-4.72-28.78c-40.31-1.24-118.77,6.32-125.44,82.94-6.17,71,20.15,137.12,37.27,171.59,9.15-3.92,17.82-7.89,26-11.83C736.45,1221.4,712.14,1147.44,716.09,1103.14Z"/><path class="cls-6" d="M379.21,1157.14c-1.5-18,18.06-106.49-12-150s-84-30.83-88.52-55.92,6.21-130.07-29.14-115.07c0,0-29.36,109.49-6.86,141s85.5,27,93,55.5-13.49,148.49,12,168,147.29,24,152.39,0S380.71,1175.14,379.21,1157.14Z"/><path class="cls-4" d="M782.1,32.31S756.1,0,500.1,0s-282,32.31-282,32.31-30,37.69-30,274.44,30,274.43,30,274.43,26,32.32,282,32.32,282-32.32,282-32.32,30-37.68,30-274.43S782.1,32.31,782.1,32.31Z"/><path class="cls-7" d="M622.1,306.75c-16,2.75-14,169.25-132,169.25s-114-160-114-169.25c0-7-127-3.38-188-1.22,0,.41,0,.81,0,1.22q0,13.31.13,25.79c55-1.81,162-4.55,167.87,1.14,7.76,7.45,8,158.82,123,167.89V613.42q10.25.08,21,.08V501.65c116.86-8.11,132.06-157.93,134-168,1.49-7.69,118.4-9.29,177.95-9.61q0-8.47.05-17.32v-.4C752.43,305.7,634,304.7,622.1,306.75Z"/><path class="cls-7" d="M509.6,0l-9.5,0-9.5,0V209h19Z"/><path class="cls-2" d="M506.34,191.14s-99.67-9.07-99.67,99.78c0,99.79,99.67,88.9,99.67,88.9s87.2-4.65,87.2-91.22C593.54,195.93,506.34,191.14,506.34,191.14Z"/><path class="cls-8" d="M505.32,206.56s-83.39-7.59-83.39,83.49c0,83.49,83.39,74.38,83.39,74.38s73-3.89,73-76.33C578.28,210.57,505.32,206.56,505.32,206.56Z"/><path class="cls-9" d="M540.67,220.32s-31.07-2.83-31.07,31.1c0,31.1,31.07,27.7,31.07,27.7s27.17-1.45,27.17-28.43C567.84,221.82,540.67,220.32,540.67,220.32Z"/></g></g></svg>